PathFileType	4	(X/Y/Z)	C:\Users\Basilio\Documents\Thesis Gigler\squatting_fais\c3dfiles\075\SLS_front_pre1\markers_experimental.trc
DataRate	CameraRate	NumFrames	NumMarkers	Units	OrigDataRate	OrigDataStartFrame	OrigNumFrames
200.000000	200.000000	4	61	mm	200.000000	1092	1249
Frame#	Time	FHD			LBHD			C7			T10			CLAV			LSHO			LUUPA			LMUPA			LDUPA			LLEP			LMEP			LUL			LRFIN			RSHO			RUPA1			RMUPA			RDUPA			RLEP			RMEP			RRAD			RUL			RUFIN			LASI			RASI			USACR			LSACR			RSACR			LTHI1			LTHI2			LTHI3			LTHI4			LLFC			LMFC			LTIB1			LTIB2			LTIB3			LTIB4			LLMAL			LMMAL			LHEE			LMT1			LMT2			LMT5			RTHI			RTHI2			RTHI3			RTHI4			RLFC			RMFC			RTIB1			RTIB2			RTIB3			RTIB4			RLMAL			RMMAL			RHEE			RMT1			RMT2			RMT5			LRAD			RBHD			
		X1	Y1	Z1	X2	Y2	Z2	X3	Y3	Z3	X4	Y4	Z4	X5	Y5	Z5	X6	Y6	Z6	X7	Y7	Z7	X8	Y8	Z8	X9	Y9	Z9	X10	Y10	Z10	X11	Y11	Z11	X12	Y12	Z12	X13	Y13	Z13	X14	Y14	Z14	X15	Y15	Z15	X16	Y16	Z16	X17	Y17	Z17	X18	Y18	Z18	X19	Y19	Z19	X20	Y20	Z20	X21	Y21	Z21	X22	Y22	Z22	X23	Y23	Z23	X24	Y24	Z24	X25	Y25	Z25	X26	Y26	Z26	X27	Y27	Z27	X28	Y28	Z28	X29	Y29	Z29	X30	Y30	Z30	X31	Y31	Z31	X32	Y32	Z32	X33	Y33	Z33	X34	Y34	Z34	X35	Y35	Z35	X36	Y36	Z36	X37	Y37	Z37	X38	Y38	Z38	X39	Y39	Z39	X40	Y40	Z40	X41	Y41	Z41	X42	Y42	Z42	X43	Y43	Z43	X44	Y44	Z44	X45	Y45	Z45	X46	Y46	Z46	X47	Y47	Z47	X48	Y48	Z48	X49	Y49	Z49	X50	Y50	Z50	X51	Y51	Z51	X52	Y52	Z52	X53	Y53	Z53	X54	Y54	Z54	X55	Y55	Z55	X56	Y56	Z56	X57	Y57	Z57	X58	Y58	Z58	X59	Y59	Z59	X60	Y60	Z60	X61	Y61	Z61	

1093	5.46	-274.3023071289063	1726.105102539063	-833.9864501953127	-400.418670654297	1593.145141601563	-910.7593383789065	-427.1777648925782	1475.600219726563	-857.1817016601565	-421.2976989746095	1151.052368164063	-856.4785156250002	-278.0142822265626	1426.65771484375	-845.372009277344	-302.9355163574219	1455.034057617188	-1009.049011230469	-300.4334411621094	1253.240966796875	-1126.637817382813	-259.6576232910157	1234.207885742188	-1103.966674804688	-278.6899108886719	1187.76611328125	-1139.125244140625	-247.9746551513672	1107.060668945313	-1134.618408203125	-321.8598327636719	1089.811401367188	-1081.625732421875	-111.0830917358399	987.692077636719	-957.4100341796877	-90.18137359619142	1027.563110351563	-856.5310058593752	-330.0931091308594	1443.531616210938	-686.0860595703126	-338.3459777832032	1238.276000976563	-575.8208007812501	-296.6761169433594	1216.536254882813	-591.3821411132814	-323.7907104492188	1170.161743164063	-562.7595825195314	-298.1225585937501	1102.967529296875	-561.3335571289064	-353.2642211914063	1066.639770507813	-613.3032226562501	-137.7813110351563	1036.561157226563	-776.0458984375002	-124.8612365722657	989.8465576171877	-715.7482299804689	-61.79904556274415	1014.568481445313	-808.7690429687502	-252.7033843994141	986.866394042969	-984.1019287109377	-246.9053192138672	994.4229736328127	-729.8864135742189	-410.6468200683595	1050.99560546875	-859.4467773437502	-414.6446228027345	1018.793518066406	-886.2793579101565	-413.8063354492189	1020.162231445313	-829.312194824219	-295.3426208496094	742.5204467773439	-1056.47607421875	-263.9316711425782	663.9202880859376	-1058.998901367188	-217.1960144042969	669.5864257812501	-1043.331176757813	-290.3349304199219	610.8703002929689	-1048.297241210938	-297.7949829101563	500.2709960937501	-1041.978515625	-251.9821929931641	481.4453735351564	-920.6213378906252	-237.9391632080079	379.6417846679688	-1018.584350585938	-297.6036376953126	340.2336120605469	-1066.39697265625	-255.6027374267579	334.4502868652344	-1049.670166015625	-254.4197845458985	252.3966064453126	-1024.518798828125	-323.0745239257813	107.3441390991211	-1046.651123046875	-294.5117492675782	121.07177734375	-965.6464843750002	-376.2936706542969	72.86836242675783	-1005.351135253906	-170.0001678466797	54.22399520874025	-970.8567504882815	-164.2623901367188	55.60623168945314	-1019.327209472656	-201.008041381836	37.71346282958985	-1072.639526367188	-312.1247558593751	789.402526855469	-669.3553466796876	-275.2599487304688	736.0377197265626	-674.6682739257814	-244.2494812011719	742.1268310546876	-685.5384521484376	-304.9705505371094	655.8059082031251	-687.1795654296876	-326.0240173339844	502.9020080566407	-721.9783325195314	-284.7691650390626	498.202117919922	-845.0217895507815	-284.4548645019532	353.1014709472657	-789.732849121094	-343.4802246093751	278.5609741210938	-736.9302978515626	-305.3550415039063	271.5893859863282	-766.8710937500001	-318.1263122558594	228.8162384033204	-805.3435668945315	-396.3305053710939	111.6351547241211	-775.814147949219	-362.3594970703126	137.3924560546875	-854.5892333984377	-447.7002258300782	93.13891601562501	-836.9332275390627	-242.9806365966797	57.1714324951172	-824.7078247070315	-247.8512115478516	56.21348953247072	-781.3662719726565	-290.5873718261719	35.02386093139649	-734.6885986328126	-151.2566070556641	1032.041748046875	-911.9360961914065	-373.0852966308594	1629.562622070313	-755.5999145507814	
1094	5.465	-274.1428527832032	1726.164306640625	-834.5418090820315	-399.9248657226564	1593.0341796875	-911.2497558593752	-426.838592529297	1475.5908203125	-857.5462646484377	-421.1063232421876	1151.000366210938	-856.8806762695315	-277.7191772460938	1426.593627929688	-845.9300537109377	-302.4476013183594	1454.825561523438	-1009.341247558594	-300.5960693359376	1253.0966796875	-1127.343383789063	-259.9059143066407	1233.88525390625	-1104.620483398438	-279.0390319824219	1187.509155273438	-1139.714111328125	-248.6701812744141	1106.823364257813	-1135.345703125	-322.4031372070313	1089.800659179688	-1082.16845703125	-112.2294998168946	986.5979614257815	-957.900085449219	-91.27474212646486	1026.456420898438	-857.1552734375002	-329.4426269531251	1443.460205078125	-686.4053344726564	-338.2167358398438	1238.265380859375	-576.0736083984376	-296.8096618652344	1216.288208007813	-591.8098144531251	-324.0771179199219	1170.026489257813	-563.1572265625001	-298.8363037109376	1102.712280273438	-561.9031372070314	-354.4739074707032	1066.677978515625	-613.5000610351564	-139.191879272461	1035.470947265625	-776.7595825195315	-126.3377227783203	988.7272949218752	-716.3825073242189	-63.2681350708008	1013.198974609375	-809.3371582031252	-252.3787384033204	987.0301513671877	-984.401306152344	-246.5443115234376	995.8043212890627	-730.6933593750001	-410.2643432617189	1050.826904296875	-859.8845214843752	-414.2471923828126	1018.635864257813	-886.7325439453127	-413.489715576172	1020.064697265625	-829.7601318359377	-294.6774902343751	742.3674926757814	-1056.625122070313	-263.2677917480469	663.9414672851564	-1059.12255859375	-216.3793182373047	669.6336669921876	-1043.396484375	-289.5423889160157	610.8212890625001	-1048.54833984375	-297.1667785644532	500.2453613281251	-1042.219604492188	-251.1995697021485	481.3875427246095	-920.6787109375002	-237.2742919921876	379.4754028320313	-1018.559753417969	-297.0087280273438	340.1394653320313	-1066.412109375	-254.7829132080079	334.2790527343751	-1049.684814453125	-254.0372924804688	252.3263549804688	-1024.538208007813	-322.8929443359376	107.3121337890625	-1046.616088867188	-294.4728698730469	121.0319061279297	-965.6080322265627	-376.1422729492188	72.84719848632814	-1005.233337402344	-169.9309844970703	54.24112701416017	-970.8420410156252	-164.0574035644532	55.75127410888673	-1019.281005859375	-200.4346771240235	38.32620239257813	-1072.602172851563	-311.9709472656251	789.4597778320315	-669.6318359375001	-275.1727600097657	736.0368041992189	-674.7899780273439	-244.1661376953126	742.2056274414064	-685.7767944335939	-304.9407653808594	655.8649902343751	-687.4454345703126	-326.0365295410157	502.9556579589845	-722.2387695312501	-284.5821533203126	498.1759643554689	-845.1610107421877	-284.3899536132813	353.0768127441407	-789.8433837890627	-343.4435424804688	278.6206970214844	-737.0203857421876	-305.4328613281251	271.6611328125001	-767.0198974609376	-318.0380859375001	228.8509216308594	-805.3953247070315	-396.3238220214845	111.7087326049805	-775.8492431640627	-362.3603210449219	137.2990112304688	-854.6133422851565	-447.7291870117189	93.14319610595705	-836.9768676757815	-242.9800415039063	57.17810440063478	-824.6773071289065	-247.8035583496094	56.18331146240236	-781.3566894531252	-290.5799255371094	35.01631164550782	-734.6923828125001	-152.2573547363282	1031.25439453125	-912.6176757812502	-372.6624450683594	1629.51220703125	-756.1000366210939	
1095	5.47	-273.9824218750001	1726.231079101563	-835.100524902344	-399.5980834960939	1592.814453125	-911.614929199219	-426.4956970214845	1475.56982421875	-857.9143066406252	-420.9205932617189	1150.953735351563	-857.2668457031252	-277.3814697265626	1426.570190429688	-846.3686523437502	-302.3187561035157	1454.612060546875	-1009.880737304688	-300.7415771484376	1252.951171875	-1127.903076171875	-260.2517089843751	1233.59521484375	-1105.321044921875	-279.5114746093751	1187.285522460938	-1140.35302734375	-249.2760925292969	1106.438720703125	-1135.849731445313	-323.5434265136719	1089.497436523438	-1083.05419921875	-113.7060546875	985.606384277344	-958.820251464844	-92.51411437988283	1025.2099609375	-857.9902954101565	-329.0601196289063	1443.461791992188	-686.8463745117189	-338.1238098144532	1238.224487304688	-576.3405761718751	-296.8860778808594	1216.01025390625	-592.2395629882814	-324.3811340332032	1169.895141601563	-563.5793457031251	-299.5239562988282	1102.497314453125	-562.3930664062501	-355.3088378906251	1066.601684570313	-613.9631347656251	-140.4519195556641	1034.405639648438	-777.347106933594	-127.7224044799805	987.7003173828127	-716.9545898437501	-64.5700149536133	1011.974975585938	-809.913269042969	-251.9712524414063	987.029479980469	-984.7149047851565	-246.3629150390626	995.8776855468752	-730.8873901367189	-409.9946289062501	1050.723510742188	-860.3326416015627	-413.9760131835939	1018.567077636719	-887.090270996094	-413.1628723144532	1019.969482421875	-830.1903076171877	-293.4965209960938	742.2205200195314	-1056.750122070313	-262.6631469726563	663.8883666992189	-1059.328369140625	-215.6135253906251	669.6825561523439	-1043.535888671875	-288.5827941894532	610.6415405273439	-1048.853881835938	-296.3414611816407	500.2578735351564	-1042.440673828125	-250.2967987060547	481.4637451171876	-920.829284667969	-236.1974487304688	379.3014221191407	-1018.315734863281	-296.4056396484376	340.0736694335938	-1066.538330078125	-254.1912536621094	334.1133117675782	-1049.624145507813	-253.6505889892579	252.1382446289063	-1024.481079101563	-322.7744445800782	107.3119735717774	-1046.508056640625	-294.3809814453126	120.9998855590821	-965.5359497070315	-376.1405639648438	72.93245697021486	-1005.217895507813	-169.9461212158203	54.10589599609376	-970.7385864257815	-164.0429382324219	55.72213363647462	-1019.231201171875	-200.5012969970704	38.38530349731446	-1072.588500976563	-311.9118652343751	789.5098266601565	-669.8590087890626	-275.0056762695313	736.0670166015626	-675.1552734375001	-244.1007232666016	742.2255249023439	-685.9566040039064	-304.8954772949219	655.9138183593751	-687.6691284179689	-326.0447692871094	503.0434875488282	-722.4647827148439	-284.4160766601563	498.2077636718751	-845.303405761719	-284.6227111816407	353.1804504394532	-790.220153808594	-343.4837646484376	278.6723632812501	-737.1121826171876	-305.3603210449219	271.6369018554688	-767.1109619140626	-317.9923706054688	228.8546905517579	-805.4974365234377	-396.2940979003907	111.6990127563477	-775.910095214844	-362.3786926269532	137.2871704101563	-854.634704589844	-447.715301513672	93.16826629638673	-836.9645996093752	-242.9807434082032	57.17798995971681	-824.6691894531252	-247.8239746093751	56.1636199951172	-781.3792724609377	-290.5885925292969	35.0086784362793	-734.6903076171876	-153.2869262695313	1030.497436523438	-913.3249511718752	-372.3427429199219	1629.519897460938	-756.5521240234376	
1096	5.475000000000001	-273.8078613281251	1726.244384765625	-835.6436767578127	-399.270233154297	1592.797973632813	-912.0434570312502	-426.179656982422	1475.514282226563	-858.248962402344	-420.6979370117189	1150.931274414063	-857.6754150390627	-277.1473693847657	1426.421508789063	-846.881042480469	-302.2721862792969	1454.44091796875	-1010.333251953125	-300.7797241210938	1252.705810546875	-1128.396484375	-260.4177856445313	1233.3037109375	-1105.747924804688	-280.0420532226563	1187.075927734375	-1141.12451171875	-249.817611694336	1106.196044921875	-1136.473999023438	-324.0948486328126	1089.462280273438	-1083.729248046875	-114.7311706542969	984.7085571289065	-959.2901611328127	-93.4643020629883	1024.05224609375	-858.4238891601565	-328.5933837890626	1443.411376953125	-687.2896728515626	-338.0232543945313	1238.255737304688	-576.5978393554689	-296.9257507324219	1215.872314453125	-592.6590576171876	-324.6623229980469	1169.780883789063	-563.9553222656251	-300.0917663574219	1102.280517578125	-562.8212280273439	-356.2480163574219	1066.566528320313	-614.5100097656251	-141.474853515625	1033.263427734375	-777.9702758789065	-129.1374664306641	986.5938720703127	-717.6505126953126	-65.75991821289064	1010.6240234375	-810.4785156250002	-251.6789093017579	986.8750610351565	-984.9897460937502	-245.8846130371094	995.791687011719	-731.0019531250001	-410.147674560547	1050.893188476563	-860.710144042969	-413.6726684570314	1018.431518554688	-887.4703369140627	-412.827117919922	1019.865173339844	-830.5581054687502	-292.9365234375001	742.1840820312501	-1056.955078125	-261.9898681640626	663.8097534179689	-1059.457885742188	-214.9380187988282	669.6502075195314	-1043.495361328125	-287.7091674804688	610.5578002929689	-1049.0380859375	-295.6158142089844	500.2372436523439	-1042.570068359375	-249.4745025634766	481.5345764160157	-921.0937500000002	-235.4602966308594	379.1199035644532	-1018.296203613281	-295.8345031738282	339.9332885742188	-1066.608642578125	-253.7393493652344	333.9442138671876	-1049.576416015625	-253.1921997070313	252.0662078857422	-1024.370361328125	-322.6816101074219	107.4136581420899	-1046.416870117188	-294.2188110351563	121.024040222168	-965.4448852539065	-376.0744323730469	72.92185211181642	-1005.106994628906	-169.846908569336	54.12974929809572	-970.6585083007815	-163.9830017089844	55.68281936645509	-1019.10595703125	-200.4632720947266	38.36796188354493	-1072.516479492188	-311.7886352539063	789.5191650390627	-670.1126708984376	-274.9587402343751	736.1102905273439	-675.3481445312501	-243.984359741211	742.2877807617189	-686.1725463867189	-304.8551940917969	655.9629516601564	-687.8910522460939	-326.0778198242188	503.0986938476564	-722.7177734375001	-284.1681518554688	498.1885070800782	-845.437438964844	-284.2902221679688	353.1156616210938	-790.0642089843752	-343.5056762695313	278.7128906250001	-737.2932128906251	-305.3724060058594	271.6818542480469	-767.2310791015626	-318.0951232910157	228.8993835449219	-805.6262207031252	-396.3045959472657	111.7642288208008	-775.9571533203127	-362.3574829101563	137.3197174072266	-854.7681274414065	-447.7212829589845	93.18260192871095	-836.9984130859377	-242.9779052734376	57.18500900268556	-824.670104980469	-247.8501739501954	56.17427062988283	-781.3853149414065	-290.6058654785157	35.0525016784668	-734.6997680664064	-154.158187866211	1029.733642578125	-914.0009765625002	-372.0350952148438	1629.436279296875	-756.9722900390626	
